%TF.GenerationSoftware,KiCad,Pcbnew,(6.0.10)*%
%TF.CreationDate,2023-02-16T14:18:23-08:00*%
%TF.ProjectId,Exercise2,45786572-6369-4736-9532-2e6b69636164,rev?*%
%TF.SameCoordinates,Original*%
%TF.FileFunction,Legend,Top*%
%TF.FilePolarity,Positive*%
%FSLAX46Y46*%
G04 Gerber Fmt 4.6, Leading zero omitted, Abs format (unit mm)*
G04 Created by KiCad (PCBNEW (6.0.10)) date 2023-02-16 14:18:23*
%MOMM*%
%LPD*%
G01*
G04 APERTURE LIST*
%ADD10C,0.150000*%
%ADD11C,0.120000*%
G04 APERTURE END LIST*
D10*
%TO.C,R4*%
X93792380Y-93776666D02*
X93316190Y-94110000D01*
X93792380Y-94348095D02*
X92792380Y-94348095D01*
X92792380Y-93967142D01*
X92840000Y-93871904D01*
X92887619Y-93824285D01*
X92982857Y-93776666D01*
X93125714Y-93776666D01*
X93220952Y-93824285D01*
X93268571Y-93871904D01*
X93316190Y-93967142D01*
X93316190Y-94348095D01*
X93125714Y-92919523D02*
X93792380Y-92919523D01*
X92744761Y-93157619D02*
X93459047Y-93395714D01*
X93459047Y-92776666D01*
%TO.C,C2*%
X106997142Y-83206666D02*
X107044761Y-83254285D01*
X107092380Y-83397142D01*
X107092380Y-83492380D01*
X107044761Y-83635238D01*
X106949523Y-83730476D01*
X106854285Y-83778095D01*
X106663809Y-83825714D01*
X106520952Y-83825714D01*
X106330476Y-83778095D01*
X106235238Y-83730476D01*
X106140000Y-83635238D01*
X106092380Y-83492380D01*
X106092380Y-83397142D01*
X106140000Y-83254285D01*
X106187619Y-83206666D01*
X106187619Y-82825714D02*
X106140000Y-82778095D01*
X106092380Y-82682857D01*
X106092380Y-82444761D01*
X106140000Y-82349523D01*
X106187619Y-82301904D01*
X106282857Y-82254285D01*
X106378095Y-82254285D01*
X106520952Y-82301904D01*
X107092380Y-82873333D01*
X107092380Y-82254285D01*
%TO.C,R1*%
X121482380Y-94146666D02*
X121006190Y-94480000D01*
X121482380Y-94718095D02*
X120482380Y-94718095D01*
X120482380Y-94337142D01*
X120530000Y-94241904D01*
X120577619Y-94194285D01*
X120672857Y-94146666D01*
X120815714Y-94146666D01*
X120910952Y-94194285D01*
X120958571Y-94241904D01*
X121006190Y-94337142D01*
X121006190Y-94718095D01*
X121482380Y-93194285D02*
X121482380Y-93765714D01*
X121482380Y-93480000D02*
X120482380Y-93480000D01*
X120625238Y-93575238D01*
X120720476Y-93670476D01*
X120768095Y-93765714D01*
%TO.C,U1*%
X108458095Y-90032380D02*
X108458095Y-90841904D01*
X108505714Y-90937142D01*
X108553333Y-90984761D01*
X108648571Y-91032380D01*
X108839047Y-91032380D01*
X108934285Y-90984761D01*
X108981904Y-90937142D01*
X109029523Y-90841904D01*
X109029523Y-90032380D01*
X110029523Y-91032380D02*
X109458095Y-91032380D01*
X109743809Y-91032380D02*
X109743809Y-90032380D01*
X109648571Y-90175238D01*
X109553333Y-90270476D01*
X109458095Y-90318095D01*
%TO.C,D1*%
X117231904Y-101112380D02*
X117231904Y-100112380D01*
X117470000Y-100112380D01*
X117612857Y-100160000D01*
X117708095Y-100255238D01*
X117755714Y-100350476D01*
X117803333Y-100540952D01*
X117803333Y-100683809D01*
X117755714Y-100874285D01*
X117708095Y-100969523D01*
X117612857Y-101064761D01*
X117470000Y-101112380D01*
X117231904Y-101112380D01*
X118755714Y-101112380D02*
X118184285Y-101112380D01*
X118470000Y-101112380D02*
X118470000Y-100112380D01*
X118374761Y-100255238D01*
X118279523Y-100350476D01*
X118184285Y-100398095D01*
%TO.C,D2*%
X96239404Y-84152380D02*
X96239404Y-83152380D01*
X96477500Y-83152380D01*
X96620357Y-83200000D01*
X96715595Y-83295238D01*
X96763214Y-83390476D01*
X96810833Y-83580952D01*
X96810833Y-83723809D01*
X96763214Y-83914285D01*
X96715595Y-84009523D01*
X96620357Y-84104761D01*
X96477500Y-84152380D01*
X96239404Y-84152380D01*
X97191785Y-83247619D02*
X97239404Y-83200000D01*
X97334642Y-83152380D01*
X97572738Y-83152380D01*
X97667976Y-83200000D01*
X97715595Y-83247619D01*
X97763214Y-83342857D01*
X97763214Y-83438095D01*
X97715595Y-83580952D01*
X97144166Y-84152380D01*
X97763214Y-84152380D01*
%TO.C,R3*%
X107283333Y-104422380D02*
X106950000Y-103946190D01*
X106711904Y-104422380D02*
X106711904Y-103422380D01*
X107092857Y-103422380D01*
X107188095Y-103470000D01*
X107235714Y-103517619D01*
X107283333Y-103612857D01*
X107283333Y-103755714D01*
X107235714Y-103850952D01*
X107188095Y-103898571D01*
X107092857Y-103946190D01*
X106711904Y-103946190D01*
X107616666Y-103422380D02*
X108235714Y-103422380D01*
X107902380Y-103803333D01*
X108045238Y-103803333D01*
X108140476Y-103850952D01*
X108188095Y-103898571D01*
X108235714Y-103993809D01*
X108235714Y-104231904D01*
X108188095Y-104327142D01*
X108140476Y-104374761D01*
X108045238Y-104422380D01*
X107759523Y-104422380D01*
X107664285Y-104374761D01*
X107616666Y-104327142D01*
%TO.C,R2*%
X121482380Y-99226666D02*
X121006190Y-99560000D01*
X121482380Y-99798095D02*
X120482380Y-99798095D01*
X120482380Y-99417142D01*
X120530000Y-99321904D01*
X120577619Y-99274285D01*
X120672857Y-99226666D01*
X120815714Y-99226666D01*
X120910952Y-99274285D01*
X120958571Y-99321904D01*
X121006190Y-99417142D01*
X121006190Y-99798095D01*
X120577619Y-98845714D02*
X120530000Y-98798095D01*
X120482380Y-98702857D01*
X120482380Y-98464761D01*
X120530000Y-98369523D01*
X120577619Y-98321904D01*
X120672857Y-98274285D01*
X120768095Y-98274285D01*
X120910952Y-98321904D01*
X121482380Y-98893333D01*
X121482380Y-98274285D01*
%TO.C,J1*%
X113942380Y-85253333D02*
X114656666Y-85253333D01*
X114799523Y-85300952D01*
X114894761Y-85396190D01*
X114942380Y-85539047D01*
X114942380Y-85634285D01*
X114942380Y-84253333D02*
X114942380Y-84824761D01*
X114942380Y-84539047D02*
X113942380Y-84539047D01*
X114085238Y-84634285D01*
X114180476Y-84729523D01*
X114228095Y-84824761D01*
%TO.C,C1*%
X97207142Y-91946666D02*
X97254761Y-91994285D01*
X97302380Y-92137142D01*
X97302380Y-92232380D01*
X97254761Y-92375238D01*
X97159523Y-92470476D01*
X97064285Y-92518095D01*
X96873809Y-92565714D01*
X96730952Y-92565714D01*
X96540476Y-92518095D01*
X96445238Y-92470476D01*
X96350000Y-92375238D01*
X96302380Y-92232380D01*
X96302380Y-92137142D01*
X96350000Y-91994285D01*
X96397619Y-91946666D01*
X97302380Y-90994285D02*
X97302380Y-91565714D01*
X97302380Y-91280000D02*
X96302380Y-91280000D01*
X96445238Y-91375238D01*
X96540476Y-91470476D01*
X96588095Y-91565714D01*
D11*
%TO.C,R4*%
X95725000Y-93837064D02*
X95725000Y-93382936D01*
X94255000Y-93837064D02*
X94255000Y-93382936D01*
%TO.C,C2*%
X109055000Y-83301252D02*
X109055000Y-82778748D01*
X107585000Y-83301252D02*
X107585000Y-82778748D01*
%TO.C,R1*%
X120115000Y-93752936D02*
X120115000Y-94207064D01*
X118645000Y-93752936D02*
X118645000Y-94207064D01*
%TO.C,U1*%
X109220000Y-96540000D02*
X107270000Y-96540000D01*
X109220000Y-91420000D02*
X105770000Y-91420000D01*
X109220000Y-96540000D02*
X111170000Y-96540000D01*
X109220000Y-91420000D02*
X111170000Y-91420000D01*
%TO.C,D1*%
X115510000Y-101345000D02*
X115510000Y-103615000D01*
X115510000Y-103615000D02*
X119570000Y-103615000D01*
X119570000Y-101345000D02*
X115510000Y-101345000D01*
%TO.C,D2*%
X99437500Y-80745000D02*
X95377500Y-80745000D01*
X95377500Y-83015000D02*
X99437500Y-83015000D01*
X99437500Y-83015000D02*
X99437500Y-80745000D01*
%TO.C,R3*%
X107677064Y-103055000D02*
X107222936Y-103055000D01*
X107677064Y-101585000D02*
X107222936Y-101585000D01*
%TO.C,R2*%
X118645000Y-98832936D02*
X118645000Y-99287064D01*
X120115000Y-98832936D02*
X120115000Y-99287064D01*
%TO.C,J1*%
X123380000Y-79840000D02*
X115760000Y-79840000D01*
X115760000Y-79840000D02*
X115760000Y-90000000D01*
X123380000Y-90000000D02*
X123380000Y-79840000D01*
X122110000Y-79840000D02*
X122110000Y-90000000D01*
X115760000Y-90000000D02*
X123380000Y-90000000D01*
%TO.C,C1*%
X99535000Y-94265000D02*
X99535000Y-90180000D01*
X97665000Y-94265000D02*
X99535000Y-94265000D01*
X97665000Y-90180000D02*
X97665000Y-94265000D01*
%TD*%
M02*
